<mxfile host="app.diagrams.net" modified="2023-05-19T15:34:55.271Z" agent="Mozilla/5.0 (Windows NT 10.0; Win64; x64) AppleWebKit/537.36 (KHTML, like Gecko) Chrome/112.0.0.0 Safari/537.36 OPR/98.0.0.0 (Edition Yx GX)" etag="yBpc8T2YN63L-C9Rr631" version="21.3.2" type="device">
  <diagram name="Страница 1" id="zVp81To2ejyCPjsqusmx">
    <mxGraphModel dx="1393" dy="807" grid="1" gridSize="10" guides="1" tooltips="1" connect="1" arrows="1" fold="1" page="1" pageScale="1" pageWidth="827" pageHeight="1169" math="0" shadow="0">
      <root>
        <mxCell id="0" />
        <mxCell id="1" parent="0" />
        <mxCell id="i5m7Ac4IlB-vv6HxBLsd-1" value="БАЗА ДАННЫХ МАГАЗИНА &quot;ШЕСТЁРОЧКА&quot;" style="rounded=0;whiteSpace=wrap;html=1;" vertex="1" parent="1">
          <mxGeometry x="40" y="20" width="760" height="100" as="geometry" />
        </mxCell>
        <mxCell id="i5m7Ac4IlB-vv6HxBLsd-2" value="Продукт" style="rounded=0;whiteSpace=wrap;html=1;" vertex="1" parent="1">
          <mxGeometry x="440" y="160" width="160" height="40" as="geometry" />
        </mxCell>
        <mxCell id="i5m7Ac4IlB-vv6HxBLsd-32" style="edgeStyle=orthogonalEdgeStyle;rounded=0;orthogonalLoop=1;jettySize=auto;html=1;exitX=0;exitY=0.5;exitDx=0;exitDy=0;entryX=1;entryY=0.5;entryDx=0;entryDy=0;" edge="1" parent="1" source="i5m7Ac4IlB-vv6HxBLsd-5" target="i5m7Ac4IlB-vv6HxBLsd-28">
          <mxGeometry relative="1" as="geometry" />
        </mxCell>
        <mxCell id="i5m7Ac4IlB-vv6HxBLsd-5" value="id(счётчик)" style="rounded=0;whiteSpace=wrap;html=1;" vertex="1" parent="1">
          <mxGeometry x="440" y="200" width="160" height="20" as="geometry" />
        </mxCell>
        <mxCell id="i5m7Ac4IlB-vv6HxBLsd-6" value="Название(текст)" style="rounded=0;whiteSpace=wrap;html=1;" vertex="1" parent="1">
          <mxGeometry x="440" y="220" width="160" height="20" as="geometry" />
        </mxCell>
        <mxCell id="i5m7Ac4IlB-vv6HxBLsd-7" value="Цена(число)" style="rounded=0;whiteSpace=wrap;html=1;" vertex="1" parent="1">
          <mxGeometry x="440" y="240" width="160" height="20" as="geometry" />
        </mxCell>
        <mxCell id="i5m7Ac4IlB-vv6HxBLsd-8" value="Кол-во на складе(число)" style="rounded=0;whiteSpace=wrap;html=1;" vertex="1" parent="1">
          <mxGeometry x="440" y="260" width="160" height="20" as="geometry" />
        </mxCell>
        <mxCell id="i5m7Ac4IlB-vv6HxBLsd-9" value="Дата поставки(дата)" style="rounded=0;whiteSpace=wrap;html=1;" vertex="1" parent="1">
          <mxGeometry x="440" y="280" width="160" height="20" as="geometry" />
        </mxCell>
        <mxCell id="i5m7Ac4IlB-vv6HxBLsd-12" value="Категория&amp;nbsp;" style="rounded=0;whiteSpace=wrap;html=1;" vertex="1" parent="1">
          <mxGeometry x="640" y="160" width="160" height="40" as="geometry" />
        </mxCell>
        <mxCell id="i5m7Ac4IlB-vv6HxBLsd-16" style="edgeStyle=orthogonalEdgeStyle;rounded=0;orthogonalLoop=1;jettySize=auto;html=1;exitX=0;exitY=0.5;exitDx=0;exitDy=0;entryX=1;entryY=0.5;entryDx=0;entryDy=0;" edge="1" parent="1" source="i5m7Ac4IlB-vv6HxBLsd-13" target="i5m7Ac4IlB-vv6HxBLsd-15">
          <mxGeometry relative="1" as="geometry" />
        </mxCell>
        <mxCell id="i5m7Ac4IlB-vv6HxBLsd-13" value="id(счётчик)" style="rounded=0;whiteSpace=wrap;html=1;" vertex="1" parent="1">
          <mxGeometry x="640" y="200" width="160" height="20" as="geometry" />
        </mxCell>
        <mxCell id="i5m7Ac4IlB-vv6HxBLsd-14" value="Название(текст)" style="rounded=0;whiteSpace=wrap;html=1;" vertex="1" parent="1">
          <mxGeometry x="640" y="220" width="160" height="20" as="geometry" />
        </mxCell>
        <mxCell id="i5m7Ac4IlB-vv6HxBLsd-15" value="id категории(счётчик)" style="rounded=0;whiteSpace=wrap;html=1;" vertex="1" parent="1">
          <mxGeometry x="440" y="300" width="160" height="20" as="geometry" />
        </mxCell>
        <mxCell id="i5m7Ac4IlB-vv6HxBLsd-18" value="Заказчик" style="rounded=0;whiteSpace=wrap;html=1;" vertex="1" parent="1">
          <mxGeometry x="40" y="160" width="160" height="40" as="geometry" />
        </mxCell>
        <mxCell id="i5m7Ac4IlB-vv6HxBLsd-31" style="edgeStyle=orthogonalEdgeStyle;rounded=0;orthogonalLoop=1;jettySize=auto;html=1;exitX=1;exitY=0.5;exitDx=0;exitDy=0;entryX=0;entryY=0.5;entryDx=0;entryDy=0;" edge="1" parent="1" source="i5m7Ac4IlB-vv6HxBLsd-19" target="i5m7Ac4IlB-vv6HxBLsd-27">
          <mxGeometry relative="1" as="geometry" />
        </mxCell>
        <mxCell id="i5m7Ac4IlB-vv6HxBLsd-19" value="id(счётчик)" style="rounded=0;whiteSpace=wrap;html=1;" vertex="1" parent="1">
          <mxGeometry x="40" y="200" width="160" height="20" as="geometry" />
        </mxCell>
        <mxCell id="i5m7Ac4IlB-vv6HxBLsd-20" value="ФИО" style="rounded=0;whiteSpace=wrap;html=1;" vertex="1" parent="1">
          <mxGeometry x="40" y="220" width="160" height="20" as="geometry" />
        </mxCell>
        <mxCell id="i5m7Ac4IlB-vv6HxBLsd-21" value="Номер телефона" style="rounded=0;whiteSpace=wrap;html=1;" vertex="1" parent="1">
          <mxGeometry x="40" y="240" width="160" height="20" as="geometry" />
        </mxCell>
        <mxCell id="i5m7Ac4IlB-vv6HxBLsd-22" value="Почта" style="rounded=0;whiteSpace=wrap;html=1;" vertex="1" parent="1">
          <mxGeometry x="40" y="260" width="160" height="20" as="geometry" />
        </mxCell>
        <mxCell id="i5m7Ac4IlB-vv6HxBLsd-23" value="id заказчика(счётчик)" style="rounded=0;whiteSpace=wrap;html=1;" vertex="1" parent="1">
          <mxGeometry x="440" y="320" width="160" height="20" as="geometry" />
        </mxCell>
        <mxCell id="i5m7Ac4IlB-vv6HxBLsd-25" value="Заказчик-продукт" style="rounded=0;whiteSpace=wrap;html=1;" vertex="1" parent="1">
          <mxGeometry x="240" y="160" width="160" height="40" as="geometry" />
        </mxCell>
        <mxCell id="i5m7Ac4IlB-vv6HxBLsd-26" value="id(счётчик)" style="rounded=0;whiteSpace=wrap;html=1;" vertex="1" parent="1">
          <mxGeometry x="240" y="200" width="160" height="20" as="geometry" />
        </mxCell>
        <mxCell id="i5m7Ac4IlB-vv6HxBLsd-27" value="id заказчика(счётчик)" style="rounded=0;whiteSpace=wrap;html=1;" vertex="1" parent="1">
          <mxGeometry x="240" y="220" width="160" height="20" as="geometry" />
        </mxCell>
        <mxCell id="i5m7Ac4IlB-vv6HxBLsd-28" value="id продукта(счётчик)" style="rounded=0;whiteSpace=wrap;html=1;" vertex="1" parent="1">
          <mxGeometry x="240" y="240" width="160" height="20" as="geometry" />
        </mxCell>
        <mxCell id="i5m7Ac4IlB-vv6HxBLsd-33" value="скидка(булевое)" style="rounded=0;whiteSpace=wrap;html=1;" vertex="1" parent="1">
          <mxGeometry x="240" y="280" width="160" height="20" as="geometry" />
        </mxCell>
        <mxCell id="i5m7Ac4IlB-vv6HxBLsd-34" value="кол-во(число)" style="rounded=0;whiteSpace=wrap;html=1;" vertex="1" parent="1">
          <mxGeometry x="240" y="260" width="160" height="20" as="geometry" />
        </mxCell>
        <mxCell id="i5m7Ac4IlB-vv6HxBLsd-35" value="Работник" style="rounded=0;whiteSpace=wrap;html=1;" vertex="1" parent="1">
          <mxGeometry x="240" y="400" width="160" height="40" as="geometry" />
        </mxCell>
        <mxCell id="i5m7Ac4IlB-vv6HxBLsd-36" value="Должность" style="rounded=0;whiteSpace=wrap;html=1;" vertex="1" parent="1">
          <mxGeometry x="440" y="400" width="160" height="40" as="geometry" />
        </mxCell>
        <mxCell id="i5m7Ac4IlB-vv6HxBLsd-37" value="id(счётчик)" style="rounded=0;whiteSpace=wrap;html=1;" vertex="1" parent="1">
          <mxGeometry x="240" y="440" width="160" height="20" as="geometry" />
        </mxCell>
        <mxCell id="i5m7Ac4IlB-vv6HxBLsd-38" value="ФИО" style="rounded=0;whiteSpace=wrap;html=1;" vertex="1" parent="1">
          <mxGeometry x="240" y="460" width="160" height="20" as="geometry" />
        </mxCell>
        <mxCell id="i5m7Ac4IlB-vv6HxBLsd-39" value="зарплата" style="rounded=0;whiteSpace=wrap;html=1;" vertex="1" parent="1">
          <mxGeometry x="240" y="480" width="160" height="20" as="geometry" />
        </mxCell>
        <mxCell id="i5m7Ac4IlB-vv6HxBLsd-40" value="название" style="rounded=0;whiteSpace=wrap;html=1;" vertex="1" parent="1">
          <mxGeometry x="440" y="460" width="160" height="20" as="geometry" />
        </mxCell>
        <mxCell id="i5m7Ac4IlB-vv6HxBLsd-44" style="edgeStyle=orthogonalEdgeStyle;rounded=0;orthogonalLoop=1;jettySize=auto;html=1;exitX=0;exitY=0.5;exitDx=0;exitDy=0;entryX=1;entryY=0.5;entryDx=0;entryDy=0;" edge="1" parent="1" source="i5m7Ac4IlB-vv6HxBLsd-41" target="i5m7Ac4IlB-vv6HxBLsd-42">
          <mxGeometry relative="1" as="geometry" />
        </mxCell>
        <mxCell id="i5m7Ac4IlB-vv6HxBLsd-41" value="id" style="rounded=0;whiteSpace=wrap;html=1;" vertex="1" parent="1">
          <mxGeometry x="440" y="440" width="160" height="20" as="geometry" />
        </mxCell>
        <mxCell id="i5m7Ac4IlB-vv6HxBLsd-42" value="id должности" style="rounded=0;whiteSpace=wrap;html=1;" vertex="1" parent="1">
          <mxGeometry x="240" y="500" width="160" height="20" as="geometry" />
        </mxCell>
      </root>
    </mxGraphModel>
  </diagram>
</mxfile>
